<?xml version="1.0" standalone="no"?>
<!DOCTYPE svg PUBLIC "-//W3C//DTD SVG 20010904//EN"
 "http://www.w3.org/TR/2001/REC-SVG-20010904/DTD/svg10.dtd">
<svg version="1.0" xmlns="http://www.w3.org/2000/svg"
 width="186.000000pt" height="186.000000pt" viewBox="0 0 186.000000 186.000000"
 preserveAspectRatio="xMidYMid meet">
<metadata>
Created by potrace 1.11, written by Peter Selinger 2001-2013
</metadata>
<g transform="translate(0.000000,186.000000) scale(0.100000,-0.100000)"
fill="#000000" stroke="none">
<path d="M847 1610 c-52 -41 -44 -137 14 -162 35 -15 36 -20 7 -33 -60 -26
-258 -403 -244 -461 9 -33 48 -51 80 -36 17 8 34 37 64 114 l41 103 0 -115 1
-115 -62 -180 c-59 -170 -66 -186 -140 -287 -101 -140 -111 -181 -48 -213 61
-32 71 -24 195 150 53 75 95 147 128 225 27 63 51 117 53 119 2 2 42 -30 91
-71 l87 -74 51 -161 c27 -89 59 -170 69 -182 25 -27 79 -28 106 -1 30 30 25
65 -31 249 l-51 166 -124 131 c-122 129 -124 132 -124 178 0 25 3 46 6 46 3 0
38 -27 79 -60 99 -81 118 -89 153 -63 17 12 28 31 30 50 3 28 -6 38 -96 112
-97 79 -100 83 -140 174 -25 56 -39 102 -36 114 8 30 -22 82 -51 89 -26 6 -35
24 -12 24 7 0 27 13 45 30 31 28 32 31 23 72 -18 81 -103 116 -164 68z"/>
</g>
</svg>
